<mxfile host="app.diagrams.net" modified="2021-05-08T11:22:23.572Z" agent="5.0 (Windows NT 10.0; Win64; x64) AppleWebKit/537.36 (KHTML, like Gecko) Chrome/90.0.4430.93 Safari/537.36" etag="iu2ZorZf5e1DylYa1jh8" version="14.2.3" type="github">
  <diagram id="VG37xd5B6LjbR5G9MZou" name="Page-1">
    <mxGraphModel dx="782" dy="471" grid="1" gridSize="10" guides="1" tooltips="1" connect="1" arrows="1" fold="1" page="1" pageScale="1" pageWidth="827" pageHeight="1169" math="0" shadow="0">
      <root>
        <mxCell id="0" />
        <mxCell id="1" parent="0" />
        <mxCell id="FIUmByhjWo9deh3YZRLX-1" value="task" style="swimlane;fontStyle=1;align=center;verticalAlign=top;childLayout=stackLayout;horizontal=1;startSize=26;horizontalStack=0;resizeParent=1;resizeParentMax=0;resizeLast=0;collapsible=1;marginBottom=0;" vertex="1" parent="1">
          <mxGeometry x="230" y="160" width="160" height="310" as="geometry" />
        </mxCell>
        <mxCell id="FIUmByhjWo9deh3YZRLX-2" value="+ id: int&#xa;+ uid: int&#xa;+ filename: var&#xa;+ file_path_name: var&#xa;+ media_duration: int&#xa;+ status: int&#xa;+ created_at: int&#xa;+ update_at: int&#xa;+ deleted_at: int" style="text;strokeColor=none;fillColor=none;align=left;verticalAlign=top;spacingLeft=4;spacingRight=4;overflow=hidden;rotatable=0;points=[[0,0.5],[1,0.5]];portConstraint=eastwest;" vertex="1" parent="FIUmByhjWo9deh3YZRLX-1">
          <mxGeometry y="26" width="160" height="174" as="geometry" />
        </mxCell>
        <mxCell id="FIUmByhjWo9deh3YZRLX-3" value="" style="line;strokeWidth=1;fillColor=none;align=left;verticalAlign=middle;spacingTop=-1;spacingLeft=3;spacingRight=3;rotatable=0;labelPosition=right;points=[];portConstraint=eastwest;" vertex="1" parent="FIUmByhjWo9deh3YZRLX-1">
          <mxGeometry y="200" width="160" height="8" as="geometry" />
        </mxCell>
        <mxCell id="FIUmByhjWo9deh3YZRLX-4" value="+ method(type): type" style="text;strokeColor=none;fillColor=none;align=left;verticalAlign=top;spacingLeft=4;spacingRight=4;overflow=hidden;rotatable=0;points=[[0,0.5],[1,0.5]];portConstraint=eastwest;" vertex="1" parent="FIUmByhjWo9deh3YZRLX-1">
          <mxGeometry y="208" width="160" height="102" as="geometry" />
        </mxCell>
        <mxCell id="FIUmByhjWo9deh3YZRLX-14" value="media" style="swimlane;fontStyle=1;align=center;verticalAlign=top;childLayout=stackLayout;horizontal=1;startSize=26;horizontalStack=0;resizeParent=1;resizeParentMax=0;resizeLast=0;collapsible=1;marginBottom=0;" vertex="1" parent="1">
          <mxGeometry x="450" y="160" width="160" height="310" as="geometry" />
        </mxCell>
        <mxCell id="FIUmByhjWo9deh3YZRLX-15" value="+ id: int&#xa;+ uid: int&#xa;+ filename: var&#xa;+ file_path_name: var&#xa;+ media_duration: int&#xa;+ status: int&#xa;+ created_at: int&#xa;+ update_at: int&#xa;+ deleted_at: int" style="text;strokeColor=none;fillColor=none;align=left;verticalAlign=top;spacingLeft=4;spacingRight=4;overflow=hidden;rotatable=0;points=[[0,0.5],[1,0.5]];portConstraint=eastwest;" vertex="1" parent="FIUmByhjWo9deh3YZRLX-14">
          <mxGeometry y="26" width="160" height="174" as="geometry" />
        </mxCell>
        <mxCell id="FIUmByhjWo9deh3YZRLX-16" value="" style="line;strokeWidth=1;fillColor=none;align=left;verticalAlign=middle;spacingTop=-1;spacingLeft=3;spacingRight=3;rotatable=0;labelPosition=right;points=[];portConstraint=eastwest;" vertex="1" parent="FIUmByhjWo9deh3YZRLX-14">
          <mxGeometry y="200" width="160" height="8" as="geometry" />
        </mxCell>
        <mxCell id="FIUmByhjWo9deh3YZRLX-17" value="+ method(type): type" style="text;strokeColor=none;fillColor=none;align=left;verticalAlign=top;spacingLeft=4;spacingRight=4;overflow=hidden;rotatable=0;points=[[0,0.5],[1,0.5]];portConstraint=eastwest;" vertex="1" parent="FIUmByhjWo9deh3YZRLX-14">
          <mxGeometry y="208" width="160" height="102" as="geometry" />
        </mxCell>
        <mxCell id="FIUmByhjWo9deh3YZRLX-18" value="user" style="swimlane;fontStyle=1;align=center;verticalAlign=top;childLayout=stackLayout;horizontal=1;startSize=26;horizontalStack=0;resizeParent=1;resizeParentMax=0;resizeLast=0;collapsible=1;marginBottom=0;" vertex="1" parent="1">
          <mxGeometry x="640" y="160" width="160" height="310" as="geometry" />
        </mxCell>
        <mxCell id="FIUmByhjWo9deh3YZRLX-19" value="+ id: int&#xa;+ openid: var&#xa;+ duration: int&#xa;+ pid: int&#xa;+ avatar: var&#xa;+ nickname: var&#xa;+ status: int&#xa;+ created_at: int&#xa;+ update_at: int&#xa;+ deleted_at: int" style="text;strokeColor=none;fillColor=none;align=left;verticalAlign=top;spacingLeft=4;spacingRight=4;overflow=hidden;rotatable=0;points=[[0,0.5],[1,0.5]];portConstraint=eastwest;" vertex="1" parent="FIUmByhjWo9deh3YZRLX-18">
          <mxGeometry y="26" width="160" height="174" as="geometry" />
        </mxCell>
        <mxCell id="FIUmByhjWo9deh3YZRLX-20" value="" style="line;strokeWidth=1;fillColor=none;align=left;verticalAlign=middle;spacingTop=-1;spacingLeft=3;spacingRight=3;rotatable=0;labelPosition=right;points=[];portConstraint=eastwest;" vertex="1" parent="FIUmByhjWo9deh3YZRLX-18">
          <mxGeometry y="200" width="160" height="8" as="geometry" />
        </mxCell>
        <mxCell id="FIUmByhjWo9deh3YZRLX-21" value="+ method(type): type" style="text;strokeColor=none;fillColor=none;align=left;verticalAlign=top;spacingLeft=4;spacingRight=4;overflow=hidden;rotatable=0;points=[[0,0.5],[1,0.5]];portConstraint=eastwest;" vertex="1" parent="FIUmByhjWo9deh3YZRLX-18">
          <mxGeometry y="208" width="160" height="102" as="geometry" />
        </mxCell>
        <mxCell id="FIUmByhjWo9deh3YZRLX-22" value="invite_log" style="swimlane;fontStyle=1;align=center;verticalAlign=top;childLayout=stackLayout;horizontal=1;startSize=26;horizontalStack=0;resizeParent=1;resizeParentMax=0;resizeLast=0;collapsible=1;marginBottom=0;" vertex="1" parent="1">
          <mxGeometry x="230" y="500" width="160" height="310" as="geometry" />
        </mxCell>
        <mxCell id="FIUmByhjWo9deh3YZRLX-23" value="+ id: int&#xa;+ invite_uid: int&#xa;+ invited_uid: int&#xa;+ add_time:int&#xa;+ created_at: int&#xa;+ update_at: int&#xa;+ deleted_at: int" style="text;strokeColor=none;fillColor=none;align=left;verticalAlign=top;spacingLeft=4;spacingRight=4;overflow=hidden;rotatable=0;points=[[0,0.5],[1,0.5]];portConstraint=eastwest;" vertex="1" parent="FIUmByhjWo9deh3YZRLX-22">
          <mxGeometry y="26" width="160" height="174" as="geometry" />
        </mxCell>
        <mxCell id="FIUmByhjWo9deh3YZRLX-24" value="" style="line;strokeWidth=1;fillColor=none;align=left;verticalAlign=middle;spacingTop=-1;spacingLeft=3;spacingRight=3;rotatable=0;labelPosition=right;points=[];portConstraint=eastwest;" vertex="1" parent="FIUmByhjWo9deh3YZRLX-22">
          <mxGeometry y="200" width="160" height="8" as="geometry" />
        </mxCell>
        <mxCell id="FIUmByhjWo9deh3YZRLX-25" value="+ method(type): type" style="text;strokeColor=none;fillColor=none;align=left;verticalAlign=top;spacingLeft=4;spacingRight=4;overflow=hidden;rotatable=0;points=[[0,0.5],[1,0.5]];portConstraint=eastwest;" vertex="1" parent="FIUmByhjWo9deh3YZRLX-22">
          <mxGeometry y="208" width="160" height="102" as="geometry" />
        </mxCell>
        <mxCell id="FIUmByhjWo9deh3YZRLX-26" value="order" style="swimlane;fontStyle=1;align=center;verticalAlign=top;childLayout=stackLayout;horizontal=1;startSize=26;horizontalStack=0;resizeParent=1;resizeParentMax=0;resizeLast=0;collapsible=1;marginBottom=0;" vertex="1" parent="1">
          <mxGeometry x="450" y="500" width="160" height="310" as="geometry" />
        </mxCell>
        <mxCell id="FIUmByhjWo9deh3YZRLX-27" value="+ id: int&#xa;+ order_no:var&#xa;+ amount: demall&#xa;+ uid: int&#xa;+ add_duration:int&#xa;+ status:int&#xa;+ created_at: int&#xa;+ update_at: int&#xa;+ deleted_at: int" style="text;strokeColor=none;fillColor=none;align=left;verticalAlign=top;spacingLeft=4;spacingRight=4;overflow=hidden;rotatable=0;points=[[0,0.5],[1,0.5]];portConstraint=eastwest;" vertex="1" parent="FIUmByhjWo9deh3YZRLX-26">
          <mxGeometry y="26" width="160" height="174" as="geometry" />
        </mxCell>
        <mxCell id="FIUmByhjWo9deh3YZRLX-28" value="" style="line;strokeWidth=1;fillColor=none;align=left;verticalAlign=middle;spacingTop=-1;spacingLeft=3;spacingRight=3;rotatable=0;labelPosition=right;points=[];portConstraint=eastwest;" vertex="1" parent="FIUmByhjWo9deh3YZRLX-26">
          <mxGeometry y="200" width="160" height="8" as="geometry" />
        </mxCell>
        <mxCell id="FIUmByhjWo9deh3YZRLX-29" value="+ method(type): type" style="text;strokeColor=none;fillColor=none;align=left;verticalAlign=top;spacingLeft=4;spacingRight=4;overflow=hidden;rotatable=0;points=[[0,0.5],[1,0.5]];portConstraint=eastwest;" vertex="1" parent="FIUmByhjWo9deh3YZRLX-26">
          <mxGeometry y="208" width="160" height="102" as="geometry" />
        </mxCell>
      </root>
    </mxGraphModel>
  </diagram>
</mxfile>
